<svg width="60" height="60" viewBox="0 0 60 60" fill="none" xmlns="http://www.w3.org/2000/svg">
<path d="M30.125 2C32.7227 2 35.2129 2.33203 37.5957 2.99609C39.9785 3.66016 42.2246 4.59766 44.334 5.80859C46.4434 7.01953 48.3379 8.48438 50.0176 10.2031C51.6973 11.9219 53.1621 13.8262 54.4121 15.916C55.6621 18.0059 56.6094 20.2422 57.2539 22.625C57.8984 25.0078 58.2305 27.5078 58.25 30.125C58.25 32.7227 57.918 35.2129 57.2539 37.5957C56.5898 39.9785 55.6523 42.2246 54.4414 44.334C53.2305 46.4434 51.7656 48.3379 50.0469 50.0176C48.3281 51.6973 46.4238 53.1621 44.334 54.4121C42.2441 55.6621 40.0078 56.6094 37.625 57.2539C35.2422 57.8984 32.7422 58.2305 30.125 58.25C27.5273 58.25 25.0371 57.918 22.6543 57.2539C20.2715 56.5898 18.0254 55.6523 15.916 54.4414C13.8066 53.2305 11.9121 51.7656 10.2324 50.0469C8.55273 48.3281 7.08789 46.4238 5.83789 44.334C4.58789 42.2441 3.64062 40.0078 2.99609 37.625C2.35156 35.2422 2.01953 32.7422 2 30.125C2 27.5273 2.33203 25.0371 2.99609 22.6543C3.66016 20.2715 4.59766 18.0254 5.80859 15.916C7.01953 13.8066 8.48438 11.9121 10.2031 10.2324C11.9219 8.55273 13.8262 7.08789 15.916 5.83789C18.0059 4.58789 20.2422 3.64062 22.625 2.99609C25.0078 2.35156 27.5078 2.01953 30.125 2ZM30.125 54.5C32.3711 54.5 34.5293 54.207 36.5996 53.6211C38.6699 53.0352 40.6035 52.2148 42.4004 51.1602C44.1973 50.1055 45.8477 48.8359 47.3516 47.3516C48.8555 45.8672 50.125 44.2266 51.1602 42.4297C52.1953 40.6328 53.0156 38.6895 53.6211 36.5996C54.2266 34.5098 54.5195 32.3516 54.5 30.125C54.5 27.8789 54.207 25.7207 53.6211 23.6504C53.0352 21.5801 52.2148 19.6465 51.1602 17.8496C50.1055 16.0527 48.8359 14.4023 47.3516 12.8984C45.8672 11.3945 44.2266 10.125 42.4297 9.08984C40.6328 8.05469 38.6895 7.23438 36.5996 6.62891C34.5098 6.02344 32.3516 5.73047 30.125 5.75C27.8789 5.75 25.7207 6.04297 23.6504 6.62891C21.5801 7.21484 19.6465 8.03516 17.8496 9.08984C16.0527 10.1445 14.4023 11.4141 12.8984 12.8984C11.3945 14.3828 10.125 16.0234 9.08984 17.8203C8.05469 19.6172 7.23438 21.5605 6.62891 23.6504C6.02344 25.7402 5.73047 27.8984 5.75 30.125C5.75 32.3711 6.04297 34.5293 6.62891 36.5996C7.21484 38.6699 8.03516 40.6035 9.08984 42.4004C10.1445 44.1973 11.4141 45.8477 12.8984 47.3516C14.3828 48.8555 16.0234 50.125 17.8203 51.1602C19.6172 52.1953 21.5605 53.0156 23.6504 53.6211C25.7402 54.2266 27.8984 54.5195 30.125 54.5ZM23.2988 28.25H43.25V32H23.2988L31.4434 40.0273L28.8066 42.7227L16.0918 30.125L28.8066 17.5273L31.4434 20.2227L23.2988 28.25Z" fill="black"/>
</svg>
