<svg width="60" height="60" viewBox="0 0 60 60" fill="none" xmlns="http://www.w3.org/2000/svg">
<path d="M25.4794 46.5209H32.646V32.1696H39.1032L39.8127 25.0388H32.646V21.4375C32.646 20.9623 32.8348 20.5066 33.1708 20.1706C33.5068 19.8346 33.9625 19.6459 34.4377 19.6459H39.8127V12.4792H34.4377C32.0618 12.4792 29.7832 13.423 28.1032 15.103C26.4232 16.783 25.4794 19.0616 25.4794 21.4375V25.0388H21.896L21.1865 32.1696H25.4794V46.5209Z" fill="black"/>
<path d="M60 30C60 46.5685 46.5685 60 30 60C13.4315 60 0 46.5685 0 30C0 13.4315 13.4315 0 30 0C46.5685 0 60 13.4315 60 30ZM3 30C3 44.9117 15.0883 57 30 57C44.9117 57 57 44.9117 57 30C57 15.0883 44.9117 3 30 3C15.0883 3 3 15.0883 3 30Z" fill="black"/>
</svg>
