<svg width="60" height="60" viewBox="0 0 60 60" fill="none" xmlns="http://www.w3.org/2000/svg">
<g clip-path="url(#clip0_65_15028)">
<path d="M30.8543 26.9986V32.9967H40.9844C40.5715 35.5714 37.9212 40.5447 30.8543 40.5447C24.7637 40.5447 19.788 35.5998 19.788 29.4989C19.788 23.398 24.7626 18.4531 30.8543 18.4531C34.3236 18.4531 36.6491 19.8947 37.9737 21.1481L42.8156 16.5741C39.7067 13.7314 35.6783 12 30.8543 12C20.9853 12 13 19.8214 13 29.5C13 39.1786 20.9853 47 30.8543 47C41.1585 47 48 39.9016 48 29.8992C48 28.7486 47.8717 27.8714 47.7154 26.9997L30.8543 26.9986Z" fill="black"/>
</g>
<path d="M60 30C60 46.5685 46.5685 60 30 60C13.4315 60 0 46.5685 0 30C0 13.4315 13.4315 0 30 0C46.5685 0 60 13.4315 60 30ZM3 30C3 44.9117 15.0883 57 30 57C44.9117 57 57 44.9117 57 30C57 15.0883 44.9117 3 30 3C15.0883 3 3 15.0883 3 30Z" fill="black"/>
<defs>
<clipPath id="clip0_65_15028">
<rect width="35" height="35" fill="white" transform="translate(13 12)"/>
</clipPath>
</defs>
</svg>
