<svg width="60" height="60" viewBox="0 0 60 60" fill="none" xmlns="http://www.w3.org/2000/svg">
<path d="M60 30C60 46.5685 46.5685 60 30 60C13.4315 60 0 46.5685 0 30C0 13.4315 13.4315 0 30 0C46.5685 0 60 13.4315 60 30ZM3 30C3 44.9117 15.0883 57 30 57C44.9117 57 57 44.9117 57 30C57 15.0883 44.9117 3 30 3C15.0883 3 3 15.0883 3 30Z" fill="black"/>
<path d="M30.3125 25.2156C27.4906 25.2156 25.2156 27.5125 25.2156 30.3125C25.2156 33.1125 27.5125 35.4094 30.3125 35.4094C33.1125 35.4094 35.4094 33.1125 35.4094 30.3125C35.4094 27.5125 33.1125 25.2156 30.3125 25.2156ZM45.625 30.3125C45.625 28.1906 45.625 26.1125 45.5156 23.9906C45.4062 21.5406 44.8375 19.3531 43.0437 17.5813C41.25 15.7875 39.0844 15.2187 36.6344 15.1094C34.5125 15 32.4344 15 30.3125 15C28.1906 15 26.1125 15 23.9906 15.1094C21.5406 15.2187 19.3531 15.7875 17.5813 17.5813C15.7875 19.375 15.2187 21.5406 15.1094 23.9906C15 26.1125 15 28.1906 15 30.3125C15 32.4344 15 34.5125 15.1094 36.6344C15.2187 39.0844 15.7875 41.2719 17.5813 43.0437C19.375 44.8375 21.5406 45.4062 23.9906 45.5156C26.1125 45.625 28.1906 45.625 30.3125 45.625C32.4344 45.625 34.5125 45.625 36.6344 45.5156C39.0844 45.4062 41.2719 44.8375 43.0437 43.0437C44.8375 41.25 45.4062 39.0844 45.5156 36.6344C45.6469 34.5344 45.625 32.4344 45.625 30.3125ZM30.3125 38.1656C25.9594 38.1656 22.4594 34.6656 22.4594 30.3125C22.4594 25.9594 25.9594 22.4594 30.3125 22.4594C34.6656 22.4594 38.1656 25.9594 38.1656 30.3125C38.1656 34.6656 34.6656 38.1656 30.3125 38.1656ZM38.4937 23.9688C37.4875 23.9688 36.6562 23.1594 36.6562 22.1313C36.6562 21.1031 37.4656 20.2938 38.4937 20.2938C39.5219 20.2938 40.3312 21.1031 40.3312 22.1313C40.3368 22.3709 40.293 22.6091 40.2027 22.8311C40.1124 23.0531 39.9775 23.2542 39.8062 23.4219C39.6385 23.5931 39.4374 23.728 39.2154 23.8184C38.9934 23.9087 38.7552 23.9524 38.5156 23.9469L38.4937 23.9688Z" fill="black"/>
</svg>
