<svg width="22" height="20" viewBox="0 0 22 20" fill="none" xmlns="http://www.w3.org/2000/svg">
<path d="M13 16.5935C16.771 16.5935 18.657 16.5935 19.828 15.4512C20.999 14.309 21 12.4719 21 8.79673C21 5.12155 21 3.28347 19.828 2.14222C18.656 1.00097 16.771 1 13 1H9C5.229 1 3.343 1 2.172 2.14222C1.001 3.28444 1 5.12155 1 8.79673C1 12.4719 1 14.31 2.172 15.4512C2.825 16.0886 3.7 16.3703 5 16.4941" stroke="black" stroke-width="1.5" stroke-linecap="round" stroke-linejoin="round"/>
<path d="M13.0002 16.5935C11.7642 16.5935 10.4022 17.0808 9.15924 17.7094C7.16124 18.72 6.16224 19.2259 5.67024 18.9033C5.17824 18.5807 5.27124 17.5827 5.45824 15.5858L5.50024 15.1316" stroke="black" stroke-width="1.5" stroke-linecap="round"/>
</svg>
