<svg width="27" height="22" viewBox="0 0 27 22" fill="none" xmlns="http://www.w3.org/2000/svg">
<path d="M13.5 7.25C13.5 5.5924 12.8415 4.00268 11.6694 2.83058C10.4973 1.65848 8.9076 1 7.25 1C5.5924 1 4.00268 1.65848 2.83058 2.83058C1.65848 4.00268 1 5.5924 1 7.25C1 8.86 1 11 3.5 13.5L13.5 21C13.5 21 21.2271 15.7729 23.5 13.5C25.7729 11.2271 26 8.86 26 7.25C26 5.5924 25.3415 4.00268 24.1694 2.83058C22.9973 1.65848 21.4076 1 19.75 1C18.0924 1 16.5027 1.65848 15.3306 2.83058C14.1585 4.00268 13.5 5.5924 13.5 7.25Z" stroke="black"
 stroke-width="1.5" />
</svg>
