<svg width="25" height="20" viewBox="0 0 25 20" fill="none" xmlns="http://www.w3.org/2000/svg">
<path d="M12.5 6.25C12.5 4.5924 11.8415 3.00268 10.6694 1.83058C9.49732 0.65848 7.9076 0 6.25 0C4.5924 0 3.00268 0.65848 1.83058 1.83058C0.65848 3.00268 0 4.5924 0 6.25C0 7.86 0 10 2.5 12.5L12.5 20C12.5 20 20.2271 14.7729 22.5 12.5C24.7729 10.2271 25 7.86 25 6.25C25 4.5924 24.3415 3.00268 23.1694 1.83058C21.9973 0.65848 20.4076 0 18.75 0C17.0924 0 15.5027 0.65848 14.3306 1.83058C13.1585 3.00268 12.5 4.5924 12.5 6.25Z" fill="#FB88AB"/>
</svg>
