<svg width="42" height="42" viewBox="0 0 42 42" fill="none" xmlns="http://www.w3.org/2000/svg">
<path d="M41.0883 16.7834C26.3994 14.7656 13.7328 25.6723 14.5839 40.139M9.02832 12.3612C9.02832 13.5399 9.49657 14.6704 10.3301 15.5039C11.1636 16.3374 12.294 16.8056 13.4728 16.8056C14.6515 16.8056 15.782 16.3374 16.6155 15.5039C17.449 14.6704 17.9172 13.5399 17.9172 12.3612C17.9172 11.1825 17.449 10.052 16.6155 9.2185C15.782 8.385 14.6515 7.91675 13.4728 7.91675C12.294 7.91675 11.1636 8.385 10.3301 9.2185C9.49657 10.052 9.02832 11.1825 9.02832 12.3612Z" stroke="black" stroke-width="3" stroke-linecap="round" stroke-linejoin="round"/>
<path d="M1.25 23.6189C7.42778 22.7633 12.9722 25.7477 15.97 30.5077" stroke="black" stroke-width="3" stroke-linecap="round" stroke-linejoin="round"/>
<path d="M1.25 15.4722C1.25 10.4944 1.25 8.00556 2.21889 6.10333C3.07108 4.43086 4.43086 3.07108 6.10333 2.21889C8.00556 1.25 10.4944 1.25 15.4722 1.25H27.0278C32.0056 1.25 34.4944 1.25 36.3967 2.21889C38.0691 3.07108 39.4289 4.43086 40.2811 6.10333C41.25 8.00556 41.25 10.4944 41.25 15.4722V27.0278C41.25 32.0056 41.25 34.4944 40.2811 36.3967C39.4289 38.0691 38.0691 39.4289 36.3967 40.2811C34.4944 41.25 32.0056 41.25 27.0278 41.25H15.4722C10.4944 41.25 8.00556 41.25 6.10333 40.2811C4.43086 39.4289 3.07108 38.0691 2.21889 36.3967C1.25 34.4944 1.25 32.0056 1.25 27.0278V15.4722Z" stroke="black" stroke-width="3" stroke-linecap="round" stroke-linejoin="round"/>
</svg>
