<svg width="23" height="20" viewBox="0 0 23 20" fill="none" xmlns="http://www.w3.org/2000/svg">
<path d="M3.8185 7.50091L4.48536 8.68842C4.91001 9.44623 5.12157 9.82436 5.12157 10.24C5.12157 10.6556 4.91001 11.0337 4.48536 11.79L3.8185 12.9791C1.92062 16.365 0.971677 18.0572 1.71059 18.8978C2.45104 19.7369 4.20482 18.9557 7.70931 17.3932L17.3306 13.1025C20.0823 11.8759 21.459 11.2619 21.459 10.24C21.459 9.21811 20.0823 8.60404 17.3306 7.37747L7.70931 3.08683C4.20482 1.52432 2.45104 0.743063 1.71059 1.58213C0.970144 2.4212 1.92062 4.11339 3.8185 7.50091Z" stroke="black" stroke-width="1.5"/>
</svg>
