<svg width="26" height="18" viewBox="0 0 26 18" fill="none" xmlns="http://www.w3.org/2000/svg">
<path d="M17.2369 1L24.5481 7.59556C24.6905 7.72664 24.8042 7.88608 24.882 8.06375C24.9598 8.24141 25 8.43341 25 8.62754C25 8.82166 24.9598 9.01366 24.882 9.19133C24.8042 9.36899 24.6905 9.52843 24.5481 9.65951L17.1123 16.439M8.95834 12.1565V14.3084C8.93451 14.5541 8.98266 14.8015 9.09686 15.02C9.21106 15.2386 9.38632 15.4188 9.60107 15.5385C9.81581 15.6581 10.0607 15.712 10.3055 15.6935C10.5503 15.675 10.7844 15.5849 10.9789 15.4343L17.747 9.7701C17.9012 9.63258 18.0246 9.46374 18.1092 9.27471C18.1937 9.08568 18.2374 8.88077 18.2374 8.67351C18.2374 8.46624 18.1937 8.26133 18.1092 8.0723C18.0246 7.88328 17.9012 7.71443 17.747 7.57691L10.9789 1.91272C10.7843 1.76201 10.5501 1.67186 10.3051 1.65339C10.0602 1.63492 9.81518 1.68893 9.60037 1.80876C9.38557 1.9286 9.21032 2.10902 9.09624 2.32779C8.98215 2.54657 8.93422 2.79413 8.95834 3.03996V5.30511C4.56998 5.30511 1.00842 9.27444 1.00842 14.1711V15.942C0.977987 16.1676 1.03069 16.3966 1.15659 16.5859C1.28248 16.7751 1.47288 16.9116 1.69188 16.9694C1.91088 17.0272 2.14336 17.0025 2.34549 16.8999C2.54762 16.7973 2.70544 16.6239 2.7892 16.4123C3.29673 15.1794 4.14941 14.1213 5.24364 13.3665C6.33786 12.6117 7.62652 12.1927 8.95304 12.1605L8.95834 12.1565Z" stroke="black" stroke-width="2" stroke-linecap="round" stroke-linejoin="round"/>
</svg>
