<svg width="25" height="20" viewBox="0 0 25 20" fill="none" xmlns="http://www.w3.org/2000/svg">
<path d="M24.634 9.21467L14.6339 0.325571C14.4591 0.170223 14.2364 0.0644357 13.9939 0.0215819C13.7515 -0.021272 13.5002 0.000731875 13.2718 0.0848117C13.0434 0.168892 12.8482 0.311272 12.7109 0.493954C12.5735 0.676636 12.5002 0.891417 12.5001 1.11114V5.05013C9.08546 5.33101 5.9116 6.73446 3.59965 8.98581C1.28771 11.2372 0.00408971 14.1744 0 17.2226V18.8893C0.000197322 19.12 0.081138 19.3449 0.231595 19.5328C0.382052 19.7207 0.594568 19.8623 0.839666 19.9381C1.08476 20.0138 1.35029 20.0198 1.59943 19.9553C1.84856 19.8909 2.06895 19.7591 2.23002 19.5783C3.45484 18.2839 4.95748 17.2194 6.65019 16.447C8.34291 15.6745 10.1918 15.2096 12.0889 15.0793C12.1514 15.0726 12.3076 15.0615 12.5001 15.0504V18.8893C12.5002 19.1091 12.5735 19.3239 12.7109 19.5065C12.8482 19.6892 13.0434 19.8316 13.2718 19.9157C13.5002 19.9998 13.7515 20.0218 13.9939 19.9789C14.2364 19.9361 14.4591 19.8303 14.6339 19.6749L24.634 10.7858C24.8684 10.5775 25 10.2949 25 10.0002C25 9.70561 24.8684 9.42304 24.634 9.21467ZM15.0002 16.2071V13.8892C15.0002 13.5945 14.8685 13.3119 14.634 13.1035C14.3996 12.8952 14.0817 12.7781 13.7501 12.7781C13.4314 12.7781 12.1301 12.8336 11.7976 12.8725C8.42858 13.1481 5.22165 14.2859 2.56503 16.1482C2.86659 13.6975 4.17447 11.4318 6.23826 9.78486C8.30205 8.13795 10.9767 7.22556 13.7501 7.2224C14.0817 7.2224 14.3996 7.10533 14.634 6.89696C14.8685 6.68858 15.0002 6.40596 15.0002 6.11126V3.79343L21.9827 10.0002L15.0002 16.2071Z" fill="black"/>
</svg>
