<svg width="186" height="183" viewBox="0 0 186 183" fill="none" xmlns="http://www.w3.org/2000/svg">
<path fill-rule="evenodd" clip-rule="evenodd" d="M117.603 10.3603C122.912 16.3547 125.111 24.7407 125.95 34.4379C127.933 32.5834 139.488 28.0806 152.675 30.6206C153.521 30.8593 154.344 31.1193 155.143 31.3995C150.683 17.1066 136.765 5.0156 116.821 9.51208C117.087 9.78906 117.347 10.0718 117.603 10.3603ZM116.534 9.21607L116.388 8.58516C137.094 3.80695 151.564 16.4153 156.13 31.2072L155.313 31.4596C173.617 37.9712 179.357 55.1105 176.178 69.5051L176.299 69.419C180.177 74.8929 183.503 81.0672 184.647 87.881C185.793 94.7077 184.741 102.141 179.924 110.106C178.983 111.815 177.723 113.394 176.24 114.836L175.798 114.381C176.902 127.061 174.547 140.527 159.443 149.277C157.422 150.562 155.054 151.439 152.495 151.978L152.811 152.07C148.133 168.148 131.973 177.686 114.326 174.28L114.361 174.101C102.132 185.292 83.1979 185.034 69.7913 172.404L69.8155 172.514C52.9931 176.202 36.1296 167.718 30.5844 150.087C15.3986 144.299 6.10628 128.986 10.3721 111.487L9.86791 112.018C9.25209 111.434 8.67168 110.82 8.13436 110.176L8.12764 110.168L8.12126 110.16C-0.0101709 99.5407 -0.944225 89.943 0.647481 82.5265C2.23344 75.1369 6.31575 69.9582 8.16478 68.1092L9.06467 67.2093L9.70358 67.8482C9.64155 67.5875 9.58473 67.3263 9.53337 67.0647C5.53065 40.9106 24.5506 32.1961 29.4374 30.7709C31.1367 29.9983 32.9655 29.451 34.8661 29.0959L34.2396 28.8783C40.1637 11.8296 57.5473 2.98775 73.129 6.78686L72.9721 7.43029C86.5378 -3.42267 105.483 -2.01064 116.534 9.21607ZM72.6412 7.69838C70.0008 9.86386 67.5711 12.5009 65.4519 15.6278C61.9903 21.9398 61.4048 26.7502 60.7429 33.5713C54.7819 30.1467 44.2587 27.4721 35.2469 29.0275C41.0309 12.6679 57.6857 4.19099 72.6412 7.69838ZM9.73005 67.9581L8.87189 68.8163C7.12149 70.5667 3.16088 75.5811 1.62522 82.7364C0.0957066 89.863 0.96044 99.1591 8.9088 109.544C9.38575 110.115 9.90003 110.662 10.4463 111.188C11.1844 108.262 12.3018 105.276 13.8341 102.265C16.6928 97.1869 20.1718 94.451 27.5783 90.3025C22.964 87.7979 12.2523 78.3076 9.73005 67.9581ZM31.7766 150.518C37.3184 166.923 53.0976 174.879 69.0222 171.66C67.7295 170.375 66.4922 168.971 65.3217 167.447C62.1417 163.308 61.445 159.917 60.159 153.658C59.7896 151.86 59.3715 149.825 58.8319 147.468C50.2037 151.972 44.0919 153.231 36.9179 151.87C35.1455 151.536 33.4286 151.082 31.7766 150.518ZM115.096 173.406C131.924 176.382 147.157 167.293 151.752 152.124C142.1 153.889 130.027 151.048 123.683 147.113C124.955 156.021 122.865 163.475 118.821 169.077C117.678 170.662 116.43 172.105 115.096 173.406ZM175.756 113.909C177.09 112.58 178.211 111.146 179.053 109.615L179.058 109.606L179.063 109.597C183.763 101.829 184.767 94.6348 183.661 88.0465C182.594 81.6916 179.559 75.867 175.914 70.6119C175.5 72.2345 174.971 73.817 174.333 75.3397C170.132 83.0004 164.481 87.1786 160.495 90.1259C159.555 90.8212 158.707 91.4479 157.993 92.0358C163.308 94.9443 172.181 100.539 175.402 110.819C175.539 111.842 175.658 112.873 175.756 113.909Z" fill="#EEA7CC" fill-opacity="0.917647"/>
</svg>
