<svg width="73" height="72" viewBox="0 0 73 72" fill="none" xmlns="http://www.w3.org/2000/svg">
<path fill-rule="evenodd" clip-rule="evenodd" d="M47.5176 15.1969C41.5056 9.99732 34.1621 7.36181 26.223 13.7635C18.2838 20.1651 34.1621 50.4707 34.1621 50.4707C39.6735 52.8434 53.5296 20.3965 47.5176 15.1969ZM35.7134 60C37.81 60 39.5096 58.4945 39.5096 56.6373C39.5096 54.7802 37.81 53.2747 35.7134 53.2747C33.6168 53.2747 31.9172 54.7802 31.9172 56.6373C31.9172 58.4945 33.6168 60 35.7134 60Z" fill="#FFB9BA"/>
<path d="M36.5 0.5C56.3888 0.5 72.5 16.4004 72.5 36C72.5 55.5996 56.3888 71.5 36.5 71.5C16.6112 71.5 0.5 55.5996 0.5 36C0.5 16.4004 16.6112 0.5 36.5 0.5Z" stroke="black"/>
</svg>
